<?xml version="1.0" encoding="utf-8"?>
<!-- Generator: Adobe Illustrator 21.1.0, SVG Export Plug-In . SVG Version: 6.00 Build 0)  -->
<svg version="1.1" xmlns="http://www.w3.org/2000/svg" xmlns:xlink="http://www.w3.org/1999/xlink" x="0px" y="0px"
	 viewBox="0 0 807.9 566.9" style="enable-background:new 0 0 807.9 566.9;" xml:space="preserve">
<style type="text/css">
	.st0{fill:none;stroke:#E50839;stroke-miterlimit:10;}
	.st1{fill:#4E7F76;}
	.st2{fill:#ACD9D7;}
	.st3{fill:#27403B;}
	.st4{fill:#F5A89B;}
	.st5{fill:#FDD8B1;}
</style>
<g id="Guide">
</g>
<g id="Layer_2">
	<polygon class="st1" points="636.2,291.6 625.8,313.4 639.5,333.4 649.9,311.5 	"/>
	<polygon class="st2" points="649.9,311.5 639.5,333.4 663.6,331.5 	"/>
	<polygon class="st3" points="636.2,291.6 660.4,289.7 649.9,311.5 	"/>
	<polygon class="st4" points="660.4,289.7 674.1,309.6 663.6,331.5 649.9,311.5 	"/>
	<polygon class="st3" points="672.5,319.6 673.7,295.4 715.6,297.5 	"/>
	<polygon class="st2" points="672.5,319.6 715.6,297.5 692.9,332.7 	"/>
	<polygon class="st3" points="709.6,320.8 730.6,308.7 751.6,320.8 	"/>
	<polygon class="st4" points="709.6,320.8 730.6,345.1 751.6,320.8 	"/>
	<polygon class="st1" points="223.7,287.7 223.7,311.9 244.6,324 244.6,299.8 	"/>
	<polygon class="st2" points="244.6,299.8 244.6,324 265.6,311.9 	"/>
	<polygon class="st3" points="223.7,287.7 244.6,275.5 244.6,299.8 	"/>
	<polygon class="st4" points="244.6,275.5 265.6,287.7 265.6,311.9 244.6,299.8 	"/>
	<polygon class="st3" points="252.7,292.4 252.7,268.1 294.7,268.1 	"/>
	<polygon class="st2" points="252.7,292.4 294.7,268.1 273.7,304.5 	"/>
	<polygon class="st4" points="263.2,311.9 305.1,287.7 284.2,324 	"/>
	<polygon class="st4" points="294.7,354.3 284.2,336.1 263.2,324 273.7,342.2 	"/>
	<polygon class="st1" points="263.2,311.9 284.2,324 284.2,336.1 263.2,324 	"/>
	<polygon class="st2" points="305.1,287.7 284.2,324 284.2,336.1 294.7,354.3 305.1,348.2 	"/>
	<polygon class="st4" points="699.1,369.7 741.1,345.5 720.1,381.8 	"/>
	<polygon class="st4" points="730.6,412.1 720.1,393.9 699.1,381.8 709.6,400 	"/>
	<polygon class="st1" points="699.1,369.7 720.1,381.8 720.1,393.9 699.1,381.8 	"/>
	<polygon class="st2" points="741.1,345.5 720.1,381.8 720.1,393.9 730.6,412.1 741.1,406.1 	"/>
	<g>
		<polygon class="st3" points="90.3,256.3 111.2,244.2 132.2,256.3 		"/>
		<polygon class="st5" points="90.3,256.3 111.2,280.5 132.2,256.3 		"/>
	</g>
	<polygon class="st3" points="275.6,266.2 296.6,254.1 317.6,266.2 	"/>
	<polygon class="st4" points="275.6,266.2 296.6,290.5 317.6,266.2 	"/>
	<g>
		<polygon class="st1" points="111.2,256.2 111.2,231.9 90.3,219.8 90.3,244.1 		"/>
		<polygon class="st2" points="111.2,256.2 132.2,244.1 132.2,195.6 111.2,231.9 		"/>
		<rect x="90.3" y="195.6" transform="matrix(0.5 -0.866 0.866 0.5 -124.2534 200.1998)" class="st5" width="42" height="24.2"/>
	</g>
	<polygon class="st1" points="292.4,233.4 292.4,209.2 271.4,197.1 271.4,221.3 	"/>
	<polygon class="st2" points="292.4,233.4 313.4,221.3 313.4,172.9 292.4,209.2 	"/>
	<rect x="271.4" y="172.9" transform="matrix(0.5 -0.866 0.866 0.5 -13.9988 345.7123)" class="st4" width="42" height="24.2"/>
	<polygon class="st1" points="749.8,214.9 741.5,192.1 717.6,187.9 725.9,210.7 	"/>
	<polygon class="st2" points="749.8,214.9 765.3,196.3 748.7,150.8 741.5,192.1 	"/>
	
		<rect x="712.2" y="157.3" transform="matrix(0.1732 -0.9849 0.9849 0.1732 439.4061 862.1337)" class="st4" width="42" height="24.2"/>
	<g>
		<polygon class="st1" points="48.3,219.8 69.3,231.9 69.3,256.2 48.3,244.1 		"/>
		<polygon class="st2" points="69.3,231.9 90.3,219.8 111.2,231.9 69.3,256.2 		"/>
		<polygon class="st3" points="48.3,219.8 69.3,231.9 90.3,219.8 90.3,195.6 		"/>
		<polygon class="st5" points="90.3,195.6 111.2,207.7 111.2,231.9 90.3,219.8 		"/>
	</g>
	<polygon class="st1" points="206,205.9 226.9,218 226.9,242.2 206,230.1 	"/>
	<polygon class="st2" points="226.9,218 247.9,205.9 268.9,218 226.9,242.2 	"/>
	<polygon class="st3" points="206,205.9 226.9,218 247.9,205.9 247.9,181.6 	"/>
	<polygon class="st4" points="247.9,181.6 268.9,193.8 268.9,218 247.9,205.9 	"/>
	<polygon class="st1" points="636.5,183.7 651,203.1 641.5,225.4 627,206 	"/>
	<polygon class="st2" points="651,203.1 675.1,200.2 689.6,219.6 641.5,225.4 	"/>
	<polygon class="st3" points="636.5,183.7 651,203.1 675.1,200.2 684.6,177.9 	"/>
	<polygon class="st4" points="684.6,177.9 699.1,197.3 689.6,219.6 675.1,200.2 	"/>
	<g>
		<polygon class="st5" points="90.3,280.5 132.2,256.3 111.2,292.7 		"/>
		<polygon class="st5" points="121.7,322.9 111.2,304.8 90.3,292.7 100.8,310.8 		"/>
		<polygon class="st1" points="90.3,280.5 111.2,292.7 111.2,304.8 90.3,292.7 		"/>
		<polygon class="st2" points="132.2,256.3 111.2,292.7 111.2,304.8 121.7,322.9 132.2,316.9 		"/>
	</g>
	<g>
		<polygon class="st5" points="69.3,329.1 90.3,292.8 111.2,304.9 90.3,341.1 		"/>
		<polygon class="st2" points="90.3,341.1 111.2,304.9 121.7,323.1 		"/>
	</g>
	<polygon class="st4" points="239.9,363.3 260.9,326.9 281.9,339 260.9,375.2 	"/>
	<polygon class="st2" points="260.9,375.2 281.9,339 292.4,357.2 	"/>
	<polygon class="st4" points="646.5,398.2 677.3,369.7 693.8,387.5 663,415.8 	"/>
	<polygon class="st2" points="663,415.8 693.8,387.5 698.4,408 	"/>
	<g>
		<polygon class="st2" points="69.3,329.1 111.2,304.9 90.3,341.1 		"/>
		<polygon class="st3" points="69.3,329.1 48.3,317 90.3,292.8 111.2,304.9 		"/>
	</g>
	<polygon class="st2" points="226.9,365.3 268.9,341.1 247.9,377.2 	"/>
	<polygon class="st3" points="226.9,365.3 206,353.2 247.9,328.9 268.9,341.1 	"/>
	<polygon class="st2" points="625,376.8 662,345.5 647.7,384.8 	"/>
	<polygon class="st3" points="625,376.8 602.2,368.6 639.2,337.3 662,345.5 	"/>
	<g>
		<polygon class="st2" points="69.3,304.8 48.3,341 48.3,365.2 90.3,341 69.3,329.1 		"/>
		<polygon class="st5" points="69.3,304.8 48.3,341 27.3,316.9 48.3,304.8 		"/>
		<polygon class="st1" points="27.3,316.9 48.3,341 48.3,365.2 27.3,353.1 		"/>
	</g>
	<polygon class="st2" points="217.6,341 196.6,377.1 196.6,401.4 238.6,377.1 217.6,365.2 	"/>
	<polygon class="st4" points="217.6,341 196.6,377.1 175.6,353.1 196.6,341 	"/>
	<polygon class="st1" points="175.6,353.1 196.6,377.1 196.6,401.4 175.6,389.2 	"/>
	<polygon class="st2" points="618.3,348.8 586.4,375.9 578.3,398.7 626,389.9 610.2,371.6 	"/>
	<polygon class="st4" points="618.3,348.8 586.4,375.9 574.7,346.2 598.5,341.8 	"/>
	<polygon class="st1" points="574.7,346.2 586.4,375.9 578.3,398.7 562.6,380.3 	"/>
	<g>
		<polygon class="st5" points="27.3,304.5 48.3,268.2 69.3,256.1 48.3,292.4 		"/>
		<polygon class="st1" points="27.3,304.5 27.3,316.6 48.3,340.7 48.3,292.4 		"/>
		<polygon class="st2" points="48.3,292.4 69.3,256.1 69.3,304.5 48.3,340.7 		"/>
	</g>
	<polygon class="st5" points="177.6,318.1 198.5,281.7 219.5,269.6 198.5,306 	"/>
	<polygon class="st1" points="177.6,318.1 177.6,330.2 198.5,354.2 198.5,306 	"/>
	<polygon class="st2" points="198.5,306 219.5,269.6 219.5,318.1 198.5,354.2 	"/>
	<polygon class="st4" points="175.6,320.7 196.6,284.4 217.6,272.3 196.6,308.6 	"/>
	<polygon class="st1" points="175.6,320.7 175.6,332.9 196.6,356.9 196.6,308.6 	"/>
	<polygon class="st2" points="196.6,308.6 217.6,272.3 217.6,320.7 196.6,356.9 	"/>
	<polygon class="st4" points="584.6,308.5 605.6,272.2 626.6,260 605.6,296.4 	"/>
	<polygon class="st1" points="584.6,308.5 584.6,320.6 605.6,344.7 605.6,296.4 	"/>
	<polygon class="st2" points="605.6,296.4 626.6,260 626.6,308.5 605.6,344.7 	"/>
	<g>
		<polygon class="st3" points="48.7,219.4 27.7,231.5 48.7,243.6 69.7,231.5 		"/>
		<polygon class="st1" points="27.7,231.5 48.7,243.6 48.3,292.3 27.7,304.2 		"/>
		<polygon class="st2" points="48.7,243.6 69.7,231.5 69.7,255.7 48.3,292.3 		"/>
	</g>
	<polygon class="st3" points="196.6,217.9 175.6,230 196.6,242.1 217.6,230 	"/>
	<polygon class="st1" points="175.6,230 196.6,242.1 196.2,290.8 175.6,302.7 	"/>
	<polygon class="st2" points="196.6,242.1 217.6,230 217.6,254.2 196.2,290.8 	"/>
	<polygon class="st3" points="588.9,184.7 573.7,203.5 597.7,207.3 612.9,188.4 	"/>
	<polygon class="st1" points="573.7,203.5 597.7,207.3 614.9,252.8 600,271.3 	"/>
	<polygon class="st2" points="597.7,207.3 612.9,188.4 621.6,211 614.9,252.8 	"/>
	<g>
		<polygon class="st1" points="69.7,268.2 69.7,292.4 90.7,304.5 90.7,280.3 		"/>
		<polygon class="st2" points="90.7,280.3 90.7,304.5 111.7,292.4 		"/>
		<polygon class="st3" points="69.7,268.2 90.7,256.1 90.7,280.3 		"/>
		<polygon class="st5" points="90.7,256.1 111.7,268.2 111.7,292.4 90.7,280.3 		"/>
	</g>
	<g>
		<polygon class="st3" points="90.3,280.5 90.3,256.3 132.2,256.3 		"/>
		<polygon class="st2" points="90.3,280.5 132.2,256.3 111.2,292.7 		"/>
	</g>
	<g>
		<polygon class="st3" points="90.3,219.8 90.3,195.6 111.2,183.5 132.2,195.6 		"/>
		<polygon class="st2" points="90.3,219.8 111.2,231.9 132.2,195.6 		"/>
	</g>
	<polygon class="st3" points="690.3,197.1 690.3,172.9 711.3,160.8 732.3,172.9 	"/>
	<polygon class="st2" points="690.3,197.1 711.3,209.3 732.3,172.9 	"/>
	<polygon class="st1" points="416.9,300.8 406.5,322.6 420.2,342.6 430.6,320.7 	"/>
	<polygon class="st2" points="430.6,320.7 420.2,342.6 444.3,340.7 	"/>
	<polygon class="st3" points="416.9,300.8 441,298.9 430.6,320.7 	"/>
	<polygon class="st4" points="441,298.9 454.8,318.8 444.3,340.7 430.6,320.7 	"/>
	<polygon class="st3" points="444.5,338.2 444.5,314 486.5,314 	"/>
	<polygon class="st2" points="444.5,338.2 486.5,314 465.5,350.3 	"/>
	<polygon class="st3" points="473.1,307.9 494.1,295.8 515.1,307.9 	"/>
	<polygon class="st4" points="473.1,307.9 494.1,332.1 515.1,307.9 	"/>
	<polygon class="st4" points="458,352.7 500,328.4 479,364.8 	"/>
	<polygon class="st4" points="489.5,395.1 479,376.9 458,364.8 468.5,383 	"/>
	<polygon class="st1" points="458,352.7 479,364.8 479,376.9 458,364.8 	"/>
	<polygon class="st2" points="500,328.4 479,364.8 479,376.9 489.5,395.1 500,389 	"/>
	<polygon class="st1" points="510.2,238.9 501.9,216.2 478,212 486.3,234.8 	"/>
	<polygon class="st2" points="510.2,238.9 525.7,220.4 509.1,174.8 501.9,216.2 	"/>
	
		<rect x="472.6" y="181.3" transform="matrix(0.1732 -0.9849 0.9849 0.1732 217.6026 646.0326)" class="st4" width="42" height="24.2"/>
	<polygon class="st1" points="406.8,201.9 421.4,221.3 411.9,243.6 397.3,224.2 	"/>
	<polygon class="st2" points="421.4,221.3 445.4,218.4 460,237.7 411.9,243.6 	"/>
	<polygon class="st3" points="406.8,201.9 421.4,221.3 445.4,218.4 454.9,196.1 	"/>
	<polygon class="st4" points="454.9,196.1 469.5,215.5 460,237.7 445.4,218.4 	"/>
	<polygon class="st4" points="426.5,384.3 457.3,355.8 473.7,373.5 443,401.9 	"/>
	<polygon class="st2" points="443,401.9 473.7,373.5 478.4,394 	"/>
	<polygon class="st2" points="406.4,384.8 443.4,353.5 429.2,392.8 	"/>
	<polygon class="st3" points="406.4,384.8 383.6,376.6 420.6,345.3 443.4,353.5 	"/>
	<polygon class="st2" points="410.2,351.7 378.3,378.8 370.2,401.6 417.9,392.8 402.1,374.6 	"/>
	<polygon class="st4" points="410.2,351.7 378.3,378.8 366.6,349.1 390.4,344.7 	"/>
	<polygon class="st1" points="366.6,349.1 378.3,378.8 370.2,401.6 354.5,383.2 	"/>
	<polygon class="st4" points="361.2,321.6 382.2,285.2 403.2,273.1 382.2,309.4 	"/>
	<polygon class="st1" points="361.2,321.6 361.2,333.7 382.2,357.7 382.2,309.4 	"/>
	<polygon class="st2" points="382.2,309.4 403.2,273.1 403.2,321.6 382.2,357.7 	"/>
	<polygon class="st3" points="358.9,206.9 343.7,225.8 367.6,229.5 382.8,210.6 	"/>
	<polygon class="st1" points="343.7,225.8 367.6,229.5 384.8,275.1 369.9,293.6 	"/>
	<polygon class="st2" points="367.6,229.5 382.8,210.6 391.6,233.2 384.8,275.1 	"/>
	<polygon class="st3" points="456.4,229 456.4,204.8 477.4,192.7 498.4,204.8 	"/>
	<polygon class="st2" points="456.4,229 477.4,241.1 498.4,204.8 	"/>
</g>
</svg>
