<?xml version="1.0" encoding="utf-8"?>
<!-- Generator: Adobe Illustrator 21.1.0, SVG Export Plug-In . SVG Version: 6.00 Build 0)  -->
<svg version="1.1" xmlns="http://www.w3.org/2000/svg" xmlns:xlink="http://www.w3.org/1999/xlink" x="0px" y="0px"
	 viewBox="0 0 300 300" style="enable-background:new 0 0 300 300;" xml:space="preserve">
<style type="text/css">
	.st0{fill:none;stroke:#E50839;stroke-miterlimit:10;}
	.st1{fill:#4E7F76;}
	.st2{fill:#ACD9D7;}
	.st3{fill:#27403B;}
	.st4{fill:#F5A89B;}
	.st5{fill:#FDD8B1;}
</style>
<g id="Guide">
</g>
<g id="Layer_2">
	<g>
		<polygon class="st3" points="173.9,122 206.5,103.2 239.1,122 		"/>
		<polygon class="st5" points="173.9,122 206.5,159.6 239.1,122 		"/>
	</g>
	<g>
		<polygon class="st1" points="206.5,121.8 206.5,84.1 173.9,65.3 173.9,103 		"/>
		<polygon class="st2" points="206.5,121.8 239.1,103 239.1,27.7 206.5,84.1 		"/>
		<rect x="173.9" y="27.7" transform="matrix(0.5 -0.866 0.866 0.5 62.9569 202.0723)" class="st5" width="65.2" height="37.6"/>
	</g>
	<g>
		<polygon class="st1" points="108.7,65.3 141.3,84.1 141.3,121.8 108.7,103 		"/>
		<polygon class="st2" points="141.3,84.1 173.9,65.3 206.5,84.1 141.3,121.8 		"/>
		<polygon class="st3" points="108.7,65.3 141.3,84.1 173.9,65.3 173.9,27.7 		"/>
		<polygon class="st5" points="173.9,27.7 206.5,46.5 206.5,84.1 173.9,65.3 		"/>
	</g>
	<g>
		<polygon class="st5" points="173.9,159.6 239.1,122 206.5,178.4 		"/>
		<polygon class="st5" points="222.8,225.5 206.5,197.3 173.9,178.4 190.2,206.7 		"/>
		<polygon class="st1" points="173.9,159.6 206.5,178.4 206.5,197.3 173.9,178.4 		"/>
		<polygon class="st2" points="239.1,122 206.5,178.4 206.5,197.3 222.8,225.5 239.1,216.1 		"/>
	</g>
	<g>
		<polygon class="st5" points="141.3,235.1 173.9,178.7 206.5,197.5 173.9,253.6 		"/>
		<polygon class="st2" points="173.9,253.6 206.5,197.5 222.8,225.7 		"/>
	</g>
	<g>
		<polygon class="st2" points="141.3,235.1 206.5,197.5 173.9,253.6 		"/>
		<polygon class="st3" points="141.3,235.1 108.7,216.3 173.9,178.7 206.5,197.5 		"/>
	</g>
	<g>
		<polygon class="st2" points="141.3,197.3 108.7,253.5 108.7,291.1 173.9,253.5 141.3,235 		"/>
		<polygon class="st5" points="141.3,197.3 108.7,253.5 76.1,216.1 108.7,197.3 		"/>
		<polygon class="st1" points="76.1,216.1 108.7,253.5 108.7,291.1 76.1,272.3 		"/>
	</g>
	<g>
		<polygon class="st5" points="76.1,196.9 108.7,140.4 141.3,121.6 108.7,178.1 		"/>
		<polygon class="st1" points="76.1,196.9 76.1,215.7 108.7,253 108.7,178.1 		"/>
		<polygon class="st2" points="108.7,178.1 141.3,121.6 141.3,196.9 108.7,253 		"/>
	</g>
	<g>
		<polygon class="st3" points="109.3,64.6 76.8,83.4 109.3,102.2 141.9,83.4 		"/>
		<polygon class="st1" points="76.8,83.4 109.4,102.2 108.7,177.9 76.8,196.3 		"/>
		<polygon class="st2" points="109.3,102.2 141.9,83.4 141.9,121 108.7,177.9 		"/>
	</g>
	<g>
		<polygon class="st1" points="141.9,140.4 141.9,178.1 174.5,196.9 174.5,159.3 		"/>
		<polygon class="st2" points="174.5,159.3 174.5,196.9 207.1,178.1 		"/>
		<polygon class="st3" points="141.9,140.4 174.5,121.6 174.5,159.3 		"/>
		<polygon class="st5" points="174.5,121.6 207.1,140.4 207.1,178.1 174.5,159.3 		"/>
	</g>
	<g>
		<polygon class="st3" points="173.9,159.6 173.9,122 239.1,122 		"/>
		<polygon class="st2" points="173.9,159.6 239.1,122 206.5,178.4 		"/>
	</g>
	<g>
		<polygon class="st3" points="173.9,65.3 173.9,27.7 206.5,8.9 239.1,27.7 		"/>
		<polygon class="st2" points="173.9,65.3 206.5,84.1 239.1,27.7 		"/>
	</g>
</g>
</svg>
