<?xml version="1.0" encoding="utf-8"?>
<!-- Generator: Adobe Illustrator 21.1.0, SVG Export Plug-In . SVG Version: 6.00 Build 0)  -->
<svg version="1.1" id="Layer_1" xmlns="http://www.w3.org/2000/svg" xmlns:xlink="http://www.w3.org/1999/xlink" x="0px" y="0px"
	 viewBox="0 0 50 50" style="enable-background:new 0 0 50 50;" xml:space="preserve">
<style type="text/css">
	.st0{fill:none;stroke:#7F0A1C;stroke-width:1.0795;stroke-miterlimit:10;}
</style>
<path class="st0" d="M1.5,42.5c0,0,16.2-27,31.3,0"/>
<circle class="st0" cx="18.2" cy="22.5" r="7"/>
<path class="st0" d="M49,12.3c0,3.6-5.8,6.5-13,6.5c-2.1,0-4.1-0.3-5.9-0.7c-0.7-0.2-2.2,3.1-2.8,2.9c-0.7-0.2-0.4-4-1-4.3
	c-2.1-1.1-3.3-2.7-3.3-4.3c0-3.6,5.8-6.5,13-6.5S49,8.7,49,12.3z"/>
<polyline class="st0" points="28.5,9 30.6,8 33.5,9 36,8 38.8,9 41.4,8 "/>
<polyline class="st0" points="28.5,11.2 30.6,10.1 33.5,11.2 36,10.1 38.8,11.2 41.4,10.1 "/>
<polyline class="st0" points="28.5,13.4 30.6,12.3 33.5,13.4 36,12.3 38.8,13.4 41.4,12.3 "/>
<polyline class="st0" points="28.5,15.5 30.6,14.4 33.5,15.5 36,14.4 38.8,15.5 41.4,14.4 "/>
</svg>
