<?xml version="1.0" encoding="utf-8"?>
<!-- Generator: Adobe Illustrator 21.1.0, SVG Export Plug-In . SVG Version: 6.00 Build 0)  -->
<svg version="1.1" id="Layer_1" xmlns="http://www.w3.org/2000/svg" xmlns:xlink="http://www.w3.org/1999/xlink" x="0px" y="0px"
	 viewBox="0 0 50 50" style="enable-background:new 0 0 50 50;" xml:space="preserve">
<style type="text/css">
	.st0{fill:none;stroke:#7F0A1C;stroke-width:1.0795;stroke-miterlimit:10;}
	.st1{fill:none;stroke:#7F0A1C;stroke-width:0.9656;stroke-miterlimit:10;}
	.st2{fill:none;stroke:#7F0A1C;stroke-width:1.207;stroke-miterlimit:10;}
</style>
<line class="st0" x1="3.5" y1="38.5" x2="43.5" y2="38.5"/>
<line class="st0" x1="3.5" y1="34.5" x2="43.5" y2="34.5"/>
<path class="st1" d="M39,18.5"/>
<line class="st0" x1="7.4" y1="34.5" x2="7.4" y2="38.5"/>
<line class="st0" x1="13.4" y1="34.5" x2="13.4" y2="38.5"/>
<line class="st0" x1="19.4" y1="34.5" x2="19.4" y2="38.5"/>
<line class="st0" x1="25.4" y1="34.5" x2="25.4" y2="38.5"/>
<line class="st0" x1="31.4" y1="34.5" x2="31.4" y2="38.5"/>
<line class="st0" x1="37.4" y1="34.5" x2="37.4" y2="38.5"/>
<line class="st2" x1="43.4" y1="34" x2="43.4" y2="39"/>
<line class="st0" x1="43.5" y1="30.5" x2="3.5" y2="30.5"/>
<line class="st0" x1="43.5" y1="34.5" x2="3.5" y2="34.5"/>
<line class="st0" x1="39.6" y1="34.5" x2="39.6" y2="30.5"/>
<line class="st0" x1="33.6" y1="34.5" x2="33.6" y2="30.5"/>
<line class="st0" x1="27.6" y1="34.5" x2="27.6" y2="30.5"/>
<line class="st0" x1="21.6" y1="34.5" x2="21.6" y2="30.5"/>
<line class="st0" x1="15.6" y1="34.5" x2="15.6" y2="30.5"/>
<line class="st0" x1="9.6" y1="34.5" x2="9.6" y2="30.5"/>
<line class="st2" x1="3.6" y1="35" x2="3.6" y2="30"/>
<line class="st0" x1="3.5" y1="30.5" x2="43.5" y2="30.5"/>
<line class="st0" x1="3.5" y1="26.5" x2="43.5" y2="26.5"/>
<line class="st0" x1="7.4" y1="26.5" x2="7.4" y2="30.5"/>
<line class="st0" x1="13.4" y1="26.5" x2="13.4" y2="30.5"/>
<line class="st0" x1="19.4" y1="26.5" x2="19.4" y2="30.5"/>
<line class="st0" x1="25.4" y1="26.5" x2="25.4" y2="30.5"/>
<line class="st0" x1="31.4" y1="26.5" x2="31.4" y2="30.5"/>
<line class="st0" x1="37.4" y1="26.5" x2="37.4" y2="30.5"/>
<line class="st2" x1="43.4" y1="26" x2="43.4" y2="31"/>
<line class="st0" x1="43.5" y1="22.5" x2="3.5" y2="22.5"/>
<line class="st0" x1="43.5" y1="26.5" x2="3.5" y2="26.5"/>
<line class="st0" x1="39.6" y1="26.5" x2="39.6" y2="22.5"/>
<line class="st0" x1="33.6" y1="26.5" x2="33.6" y2="22.5"/>
<line class="st0" x1="27.6" y1="26.5" x2="27.6" y2="22.5"/>
<line class="st0" x1="21.6" y1="26.5" x2="21.6" y2="22.5"/>
<line class="st0" x1="15.6" y1="26.5" x2="15.6" y2="22.5"/>
<line class="st0" x1="9.6" y1="26.5" x2="9.6" y2="22.5"/>
<line class="st2" x1="3.6" y1="27" x2="3.6" y2="22"/>
</svg>
