<?xml version="1.0" encoding="utf-8"?>
<!-- Generator: Adobe Illustrator 21.1.0, SVG Export Plug-In . SVG Version: 6.00 Build 0)  -->
<svg version="1.1" xmlns="http://www.w3.org/2000/svg" xmlns:xlink="http://www.w3.org/1999/xlink" x="0px" y="0px"
	 viewBox="0 0 35 35" style="enable-background:new 0 0 35 35;" xml:space="preserve">
<style type="text/css">
	.st0{fill:#FF1339;}
	.st1{fill:#DC4E41;}
	.st2{fill:#FFFFFF;}
</style>
<g id="Layer_1">
</g>
<g id="Capa_1">
	<g>
		<g>
			<circle id="XMLID_1_" class="st0" cx="17.5" cy="17.6" r="16.9"/>
		</g>
		<g>
			<path class="st1" d="M6.5,18.4c-0.1,2.9,1.9,5.7,4.7,6.6c2.6,0.9,5.8,0.2,7.5-2c1.3-1.6,1.5-3.6,1.4-5.6c-2.2,0-4.4,0-6.7,0
				c0,0.8,0,1.6,0,2.4c1.3,0,2.7,0,4,0c-0.3,1.2-1.1,2.2-2.3,2.6c-2.2,1-5.1-0.3-5.8-2.7c-0.9-2.3,0.5-5,2.8-5.6
				c1.4-0.5,2.9,0.1,4.1,0.8c0.6-0.6,1.2-1.2,1.8-1.8c-1.4-1.2-3.2-1.9-5-1.7C9.5,11.5,6.3,14.8,6.5,18.4z"/>
			<path class="st1" d="M24.4,15.4c0,0.7,0,1.3,0,2c-0.7,0-1.3,0-2,0c0,0.7,0,1.3,0,2c0.7,0,1.3,0,2,0c0,0.7,0,1.3,0,2
				c0.7,0,1.3,0,2,0c0-0.7,0-1.3,0-2c0.7,0,1.3,0,2,0c0-0.7,0-1.3,0-2c-0.7,0-1.3,0-2,0c0-0.7,0-1.3,0-2
				C25.7,15.4,25,15.4,24.4,15.4z"/>
			<g>
				<path class="st2" d="M6.5,18.4c-0.1-3.6,3-6.9,6.6-7c1.8-0.2,3.6,0.6,5,1.7c-0.6,0.6-1.1,1.2-1.8,1.8c-1.2-0.7-2.7-1.3-4.1-0.8
					c-2.3,0.7-3.7,3.4-2.8,5.6c0.7,2.4,3.6,3.6,5.8,2.7c1.2-0.4,1.9-1.5,2.3-2.6c-1.3,0-2.7,0-4,0c0-0.8,0-1.6,0-2.4
					c2.2,0,4.4,0,6.7,0c0.1,1.9-0.1,4-1.4,5.6c-1.7,2.2-4.9,2.9-7.5,2C8.4,24.1,6.4,21.3,6.5,18.4z"/>
				<path class="st2" d="M24.4,15.4c0.7,0,1.3,0,2,0c0,0.7,0,1.3,0,2c0.7,0,1.3,0,2,0c0,0.7,0,1.3,0,2c-0.7,0-1.3,0-2,0
					c0,0.7,0,1.3,0,2c-0.7,0-1.3,0-2,0c0-0.7,0-1.3,0-2c-0.7,0-1.3,0-2,0c0-0.7,0-1.3,0-2c0.7,0,1.3,0,2,0
					C24.4,16.7,24.4,16.1,24.4,15.4z"/>
			</g>
		</g>
	</g>
</g>
</svg>
