<?xml version="1.0" encoding="utf-8"?>
<!-- Generator: Adobe Illustrator 21.1.0, SVG Export Plug-In . SVG Version: 6.00 Build 0)  -->
<svg version="1.1" xmlns="http://www.w3.org/2000/svg" xmlns:xlink="http://www.w3.org/1999/xlink" x="0px" y="0px"
	 viewBox="0 0 35 35" style="enable-background:new 0 0 35 35;" xml:space="preserve">
<style type="text/css">
	.st0{fill:#FFFFFF;}
	.st1{fill:#FF1339;}
</style>
<g id="Layer_1">
	<circle class="st0" cx="17.4" cy="17.6" r="15.4"/>
	<g>
		<path class="st1" d="M22.4,9.6H12.3c-1.6,0-2.9,1.3-2.9,2.9v10.1c0,1.6,1.3,2.9,2.9,2.9h10.1c1.6,0,2.9-1.3,2.9-2.9V12.6
			C25.3,10.9,24,9.6,22.4,9.6z M17.3,22.9c-2.9,0-5.3-2.4-5.3-5.3c0-2.9,2.4-5.3,5.3-5.3c2.9,0,5.3,2.4,5.3,5.3
			C22.6,20.5,20.2,22.9,17.3,22.9z M22.8,13.5c-0.7,0-1.2-0.6-1.2-1.2s0.6-1.2,1.2-1.2c0.7,0,1.2,0.6,1.2,1.2
			C24,12.9,23.4,13.5,22.8,13.5z"/>
		<path class="st1" d="M17.3,14.6c-1.7,0-3,1.4-3,3c0,1.7,1.4,3,3,3c1.7,0,3-1.4,3-3C20.4,16,19,14.6,17.3,14.6z"/>
		<path class="st1" d="M17.3,0.6c-9.4,0-17,7.6-17,17s7.6,17,17,17s17-7.6,17-17S26.7,0.6,17.3,0.6z M27.5,22.7
			c0,2.8-2.3,5.2-5.2,5.2H12.3c-2.8,0-5.2-2.3-5.2-5.2V12.6c0-2.8,2.3-5.2,5.2-5.2h10.1c2.8,0,5.2,2.3,5.2,5.2V22.7z"/>
	</g>
</g>
<g id="Capa_1">
</g>
</svg>
