<?xml version="1.0" encoding="utf-8"?>
<!-- Generator: Adobe Illustrator 21.1.0, SVG Export Plug-In . SVG Version: 6.00 Build 0)  -->
<svg version="1.1" xmlns="http://www.w3.org/2000/svg" xmlns:xlink="http://www.w3.org/1999/xlink" x="0px" y="0px"
	 viewBox="0 0 35 35" style="enable-background:new 0 0 35 35;" xml:space="preserve">
<style type="text/css">
	.st0{fill:#FF1339;}
	.st1{fill:#7F0A1C;}
</style>
<g id="Layer_1">
</g>
<g id="Capa_1">
	<g>
		<g>
			<path class="st0" d="M17.9,1.4c-7.2,0-13.1,5.9-13.1,13.1c0,0.8,0.1,1.6,0.2,2.5c0,0,0,0.2,0.1,0.4c0.2,0.9,0.5,1.7,0.9,2.6
				c1.4,3.3,4.5,8.4,11.3,13.9c0.2,0.1,0.4,0.2,0.6,0.2s0.4-0.1,0.6-0.2c6.8-5.5,9.9-10.5,11.3-13.9c0.4-0.8,0.7-1.7,0.9-2.6
				c0.1-0.2,0.1-0.4,0.1-0.4c0.2-0.8,0.2-1.6,0.2-2.5C31,7.3,25.1,1.4,17.9,1.4z M28.9,16.6C28.9,16.7,28.9,16.7,28.9,16.6
				c0,0.1,0,0.2-0.1,0.3c0,0,0,0,0,0c-0.2,0.8-0.4,1.5-0.8,2.2c0,0,0,0,0,0c-1.3,3-4.1,7.6-10.2,12.7c-6.1-5-8.9-9.7-10.2-12.7
				c0,0,0,0,0,0C7.4,18.5,7.2,17.8,7,17c0,0,0,0,0,0c0-0.2-0.1-0.3-0.1-0.3c0,0,0,0,0,0c-0.1-0.7-0.2-1.4-0.2-2.1
				c0-6.2,5-11.2,11.2-11.2s11.2,5,11.2,11.2C29.1,15.2,29.1,15.9,28.9,16.6z"/>
			<path class="st1" d="M17.9,6.4c-4.6,0-8.3,3.7-8.3,8.3s3.7,8.3,8.3,8.3s8.3-3.7,8.3-8.3S22.5,6.4,17.9,6.4z M17.9,21.1
				c-3.6,0-6.4-2.9-6.4-6.4s2.9-6.4,6.4-6.4s6.4,2.9,6.4,6.4S21.5,21.1,17.9,21.1z"/>
		</g>
	</g>
</g>
</svg>
