<?xml version="1.0" encoding="utf-8"?>
<!-- Generator: Adobe Illustrator 21.1.0, SVG Export Plug-In . SVG Version: 6.00 Build 0)  -->
<svg version="1.1" xmlns="http://www.w3.org/2000/svg" xmlns:xlink="http://www.w3.org/1999/xlink" x="0px" y="0px"
	 viewBox="0 0 35 35" style="enable-background:new 0 0 35 35;" xml:space="preserve">
<style type="text/css">
	.st0{fill:#FFFFFF;stroke:#000000;stroke-width:9.592681e-02;stroke-miterlimit:10;}
	.st1{fill:#7F0A1C;stroke:#7F0A1C;stroke-width:9.592681e-02;stroke-miterlimit:10;}
	.st2{fill:#FF1339;stroke:#FF1339;stroke-width:9.592681e-02;stroke-miterlimit:10;}
	.st3{fill:#E52133;stroke:#E51133;stroke-width:9.592681e-02;stroke-miterlimit:10;}
	.st4{fill:#E01132;stroke:#E01132;stroke-width:9.592681e-02;stroke-miterlimit:10;}
	.st5{fill:url(#SVGID_1_);}
	.st6{fill:none;}
	.st7{font-family:'Raleway-Black';}
	.st8{font-size:7.8761px;}
</style>
<g id="Layer_1">
	<g>
		<rect x="18" y="13.7" class="st0" width="0" height="0"/>
		<polygon class="st1" points="18,13.7 26.8,4.9 18,1.3 18,1.3 18,13.7 		"/>
		<polygon class="st2" points="18,1.3 9.2,4.9 9.2,4.9 18,13.7 		"/>
		<polygon class="st0" points="18,13.7 18,13.7 18,13.7 		"/>
		<polygon class="st0" points="18,13.7 18,13.7 18,13.7 		"/>
		<polygon class="st3" points="18,13.7 30.4,13.7 26.8,4.9 26.8,4.9 18,13.7 		"/>
		<polygon class="st4" points="18,13.7 18,26.2 18,26.2 26.8,22.6 26.8,22.5 18,13.7 		"/>
		<polygon class="st2" points="30.4,13.7 18,13.7 26.8,22.5 30.4,13.7 		"/>
		<polygon class="st1" points="18,13.7 9.2,22.6 18,26.2 18,13.7 		"/>
		<polygon class="st3" points="18,13.7 18,13.7 9.2,4.9 5.5,13.7 18,13.7 		"/>
		<polygon class="st4" points="5.5,13.7 5.5,13.7 9.2,22.6 9.2,22.6 18,13.7 		"/>
	</g>
	<linearGradient id="SVGID_1_" gradientUnits="userSpaceOnUse" x1="10.895" y1="17.7427" x2="25.0549" y2="9.5674">
		<stop  offset="0" style="stop-color:#7F0A1C"/>
		<stop  offset="0.7138" style="stop-color:#E01132"/>
		<stop  offset="0.9812" style="stop-color:#FF1339"/>
	</linearGradient>
	<polygon class="st5" points="18,5.2 12,7.7 9.5,13.7 12,19.6 18,22.1 24,19.6 26.4,13.7 24,7.7 	"/>
	<rect x="5.5" y="26.9" class="st6" width="25" height="7.1"/>
	<text transform="matrix(1 0 0 1 5.4854 32.6582)" class="st7 st8">Roobe</text>
</g>
<g id="Capa_1">
</g>
</svg>
