<?xml version="1.0" encoding="utf-8"?>
<!-- Generator: Adobe Illustrator 21.1.0, SVG Export Plug-In . SVG Version: 6.00 Build 0)  -->
<svg version="1.1" id="Layer_1" xmlns="http://www.w3.org/2000/svg" xmlns:xlink="http://www.w3.org/1999/xlink" x="0px" y="0px"
	 viewBox="0 0 50 50" style="enable-background:new 0 0 50 50;" xml:space="preserve">
<style type="text/css">
	.st0{fill:none;stroke:#7F0A1C;stroke-width:1.207;stroke-linecap:round;stroke-miterlimit:10;}
</style>
<polyline class="st0" points="21.5,36.5 14.5,36.5 14.5,28.5 "/>
<polyline class="st0" points="14.5,23 14.5,14.5 36.5,14.5 36.5,36.5 27.8,36.5 "/>
<path class="st0" d="M14.5,28.6c-0.8,0.8-1.8,1.2-2.8,1.2c-1,0-2.1-0.4-2.8-1.2c-1.6-1.6-1.6-4.1,0-5.7c0.7-0.7,1.6-1.1,2.6-1.2
	c1.1-0.1,2.2,0.3,3.1,1.2"/>
<path class="st0" d="M21.8,36.5c-0.8-0.8-1.2-1.8-1.2-2.8c0-1,0.4-2.1,1.2-2.8c1.6-1.6,4.1-1.6,5.7,0c0.7,0.7,1.1,1.6,1.2,2.6
	c0.1,1.1-0.3,2.2-1.2,3.1"/>
</svg>
